<mxfile modified="2023-10-24T08:08:51.519Z" host="app.diagrams.net" agent="Mozilla/5.0 (Macintosh; Intel Mac OS X 10_15_7) AppleWebKit/537.36 (KHTML, like Gecko) Chrome/117.0.0.0 Safari/537.36" etag="VXqRSL2bjgvTn7CJOu9l" version="21.7.2" type="github">
  <diagram id="f106602c-feb2-e66a-4537-3a34d633f6aa" name="Page-1">
    <mxGraphModel dx="954" dy="585" grid="1" gridSize="10" guides="1" tooltips="1" connect="1" arrows="1" fold="1" page="1" pageScale="1" pageWidth="1169" pageHeight="827" background="none" math="0" shadow="0">
      <root>
        <mxCell id="0" />
        <mxCell id="1" parent="0" />
        <mxCell id="14" value="&lt;br&gt;&lt;b&gt;&lt;br&gt;&lt;/b&gt;" style="fillColor=#F6F6F6;strokeColor=none;shadow=0;gradientColor=none;fontSize=14;align=left;spacing=10;fontColor=#717171;9E9E9E;verticalAlign=top;spacingTop=-4;fontStyle=0;spacingLeft=40;html=1;" parent="1" vertex="1">
          <mxGeometry x="349.5" y="180" width="610" height="568" as="geometry" />
        </mxCell>
        <mxCell id="E6JsvqY4oB9ZtsTkPrVk-608" style="edgeStyle=orthogonalEdgeStyle;shape=link;rounded=0;orthogonalLoop=1;jettySize=auto;html=1;" parent="14" edge="1">
          <mxGeometry relative="1" as="geometry">
            <mxPoint x="120" y="165.66666666666674" as="sourcePoint" />
            <mxPoint x="116" y="269" as="targetPoint" />
            <Array as="points">
              <mxPoint x="120" y="250" />
              <mxPoint x="118" y="250" />
              <mxPoint x="118" y="269" />
            </Array>
          </mxGeometry>
        </mxCell>
        <mxCell id="568" value="" style="strokeColor=#dddddd;fillColor=#ffffff;shadow=1;strokeWidth=1;rounded=1;absoluteArcSize=1;arcSize=2;fontSize=10;fontColor=#9E9E9E;align=center;html=1;" parent="14" vertex="1">
          <mxGeometry x="23" y="94.66666666666667" width="122" height="71" as="geometry" />
        </mxCell>
        <mxCell id="569" value="&lt;font color=&quot;#1a1a1a&quot;&gt;GraphQL&lt;/font&gt;" style="dashed=0;connectable=0;html=1;fillColor=#5184F3;strokeColor=none;shape=mxgraph.gcp2.hexIcon;prIcon=cloud_load_balancing;part=1;labelPosition=right;verticalLabelPosition=middle;align=left;verticalAlign=middle;spacingLeft=5;fontColor=#999999;fontSize=12;" parent="568" vertex="1">
          <mxGeometry y="0.5" width="44" height="39" relative="1" as="geometry">
            <mxPoint x="5" y="-19.5" as="offset" />
          </mxGeometry>
        </mxCell>
        <mxCell id="578" value="" style="strokeColor=#dddddd;fillColor=#CCE5FF;shadow=1;strokeWidth=1;rounded=1;absoluteArcSize=1;arcSize=2;fontSize=10;fontColor=#9E9E9E;align=center;html=1;" parent="14" vertex="1">
          <mxGeometry x="452.5" y="65.08333333333333" width="120" height="130.16666666666666" as="geometry" />
        </mxCell>
        <mxCell id="579" value="&lt;font color=&quot;#000000&quot;&gt;Postgres DB&lt;/font&gt;" style="dashed=0;connectable=0;html=1;fillColor=#5184F3;strokeColor=none;shape=mxgraph.gcp2.hexIcon;prIcon=bigquery;part=1;labelPosition=right;verticalLabelPosition=middle;align=left;verticalAlign=middle;spacingLeft=5;fontColor=#999999;fontSize=12;" parent="578" vertex="1">
          <mxGeometry y="0.5" width="44" height="39" relative="1" as="geometry">
            <mxPoint y="-47" as="offset" />
          </mxGeometry>
        </mxCell>
        <mxCell id="580" value="" style="rounded=1;absoluteArcSize=1;arcSize=2;html=1;strokeColor=none;gradientColor=none;shadow=0;dashed=0;strokeColor=none;fontSize=12;fontColor=#9E9E9E;align=left;verticalAlign=top;spacing=10;spacingTop=-4;fillColor=#E1F5FE;" parent="14" vertex="1">
          <mxGeometry x="180.5" y="65.08333333333333" width="190" height="165.66666666666666" as="geometry" />
        </mxCell>
        <mxCell id="E6JsvqY4oB9ZtsTkPrVk-594" value="" style="edgeStyle=orthogonalEdgeStyle;rounded=0;orthogonalLoop=1;jettySize=auto;html=1;" parent="14" source="570" target="578" edge="1">
          <mxGeometry relative="1" as="geometry" />
        </mxCell>
        <mxCell id="E6JsvqY4oB9ZtsTkPrVk-604" style="edgeStyle=orthogonalEdgeStyle;rounded=0;orthogonalLoop=1;jettySize=auto;html=1;exitX=1;exitY=0.75;exitDx=0;exitDy=0;entryX=0.75;entryY=0;entryDx=0;entryDy=0;" parent="14" source="570" target="E6JsvqY4oB9ZtsTkPrVk-602" edge="1">
          <mxGeometry relative="1" as="geometry">
            <Array as="points">
              <mxPoint x="356" y="220" />
              <mxPoint x="378" y="220" />
            </Array>
          </mxGeometry>
        </mxCell>
        <mxCell id="570" value="" style="shape=mxgraph.gcp2.doubleRect;strokeColor=#dddddd;fillColor=#ffffff;shadow=1;strokeWidth=1;fontSize=10;fontColor=#9E9E9E;align=center;html=1;" parent="14" vertex="1">
          <mxGeometry x="195.25" y="83.51" width="160.5" height="92.49" as="geometry" />
        </mxCell>
        <mxCell id="571" value="&lt;font color=&quot;#000000&quot;&gt;&lt;br&gt;&lt;br&gt;Commerce_Store&lt;/font&gt;" style="dashed=0;connectable=0;html=1;fillColor=#5184F3;strokeColor=none;shape=mxgraph.gcp2.hexIcon;prIcon=compute_engine;part=1;labelPosition=right;verticalLabelPosition=middle;align=left;verticalAlign=top;spacingLeft=5;fontColor=#999999;fontSize=12;spacingTop=-8;" parent="570" vertex="1">
          <mxGeometry width="44" height="39" relative="1" as="geometry">
            <mxPoint x="5" y="7" as="offset" />
          </mxGeometry>
        </mxCell>
        <mxCell id="E6JsvqY4oB9ZtsTkPrVk-589" value="" style="edgeStyle=orthogonalEdgeStyle;rounded=0;orthogonalLoop=1;jettySize=auto;html=1;" parent="14" source="568" target="570" edge="1">
          <mxGeometry relative="1" as="geometry" />
        </mxCell>
        <mxCell id="E6JsvqY4oB9ZtsTkPrVk-597" value="" style="shape=mxgraph.gcp2.doubleRect;strokeColor=#dddddd;shadow=1;strokeWidth=1;rounded=1;absoluteArcSize=1;arcSize=2;" parent="14" vertex="1">
          <mxGeometry x="199.25" y="381.8333333333333" width="198" height="80.46666666666667" as="geometry" />
        </mxCell>
        <mxCell id="E6JsvqY4oB9ZtsTkPrVk-598" value="&lt;font color=&quot;#000000&quot;&gt;MyAcuvue_batch&lt;/font&gt;" style="editableCssRules=.*;html=1;fontColor=#999999;shape=image;verticalLabelPosition=middle;labelBackgroundColor=#ffffff;verticalAlign=middle;labelPosition=right;align=left;spacingLeft=20;part=1;points=[];imageAspect=0;image=data:image/svg+xml,PHN2ZyB4bWxucz0iaHR0cDovL3d3dy53My5vcmcvMjAwMC9zdmciIHhtbG5zOnY9Imh0dHBzOi8vdmVjdGEuaW8vbmFubyIgd2lkdGg9IjIwIiBoZWlnaHQ9IjE2IiB2aWV3Qm94PSIwIDAgMjAgMTYiPiYjeGE7CTxzdHlsZSB0eXBlPSJ0ZXh0L2NzcyI+JiN4YTsJLnN0MHtmaWxsOiM2NjlkZjY7fSYjeGE7CS5zdDF7ZmlsbDojNDI4NWY0O30mI3hhOwkuc3Qye2ZpbGw6I2FlY2JmYTt9JiN4YTsJPC9zdHlsZT4mI3hhOwk8cGF0aCBjbGFzcz0ic3QwIiBkPSJNMTUgMmgzdjEyaC0zdjJoMyAydi0yVjIgMGgtMi0zeiIvPiYjeGE7CTxwYXRoIGNsYXNzPSJzdDEiIGQ9Ik0xOCAydjFsMi0xem0yIDEydi0xbC0yIDF6Ii8+JiN4YTsJPHBhdGggY2xhc3M9InN0MCIgZD0iTTUgMTRIMlYyaDNWMEgyIDB2MiAxMiAyaDIgM3oiLz4mI3hhOwk8cGF0aCBjbGFzcz0ic3QxIiBkPSJNMCAxNHYtMWwyIDF6TTIgMnYxTDAgMnoiLz4mI3hhOwk8cGF0aCBjbGFzcz0ic3QyIiBkPSJNNSA3aDEwdjJINXptMCAzaDEwdjJINXptMC02aDEwdjJINXoiLz4mI3hhOzwvc3ZnPg==;" parent="E6JsvqY4oB9ZtsTkPrVk-597" vertex="1">
          <mxGeometry width="30" height="24" relative="1" as="geometry">
            <mxPoint x="15" y="18" as="offset" />
          </mxGeometry>
        </mxCell>
        <mxCell id="E6JsvqY4oB9ZtsTkPrVk-601" value="" style="edgeStyle=orthogonalEdgeStyle;rounded=0;orthogonalLoop=1;jettySize=auto;html=1;entryX=0.5;entryY=1;entryDx=0;entryDy=0;" parent="14" source="E6JsvqY4oB9ZtsTkPrVk-597" target="578" edge="1">
          <mxGeometry relative="1" as="geometry">
            <mxPoint x="473.25" y="407.06666666666666" as="targetPoint" />
          </mxGeometry>
        </mxCell>
        <mxCell id="E6JsvqY4oB9ZtsTkPrVk-609" style="edgeStyle=orthogonalEdgeStyle;shape=link;rounded=0;orthogonalLoop=1;jettySize=auto;html=1;exitX=0;exitY=0.75;exitDx=0;exitDy=0;entryX=1;entryY=0.75;entryDx=0;entryDy=0;" parent="14" source="E6JsvqY4oB9ZtsTkPrVk-602" target="E6JsvqY4oB9ZtsTkPrVk-605" edge="1">
          <mxGeometry relative="1" as="geometry" />
        </mxCell>
        <mxCell id="E6JsvqY4oB9ZtsTkPrVk-602" value="" style="strokeColor=#dddddd;shadow=1;strokeWidth=1;rounded=1;absoluteArcSize=1;arcSize=2;" parent="14" vertex="1">
          <mxGeometry x="280" y="244" width="130" height="50" as="geometry" />
        </mxCell>
        <mxCell id="E6JsvqY4oB9ZtsTkPrVk-603" value="&lt;font color=&quot;#000000&quot;&gt;MyAcuvue&lt;br&gt;_Spring&lt;/font&gt;" style="editableCssRules=.*;html=1;fontColor=#999999;shape=image;verticalLabelPosition=middle;labelBackgroundColor=#ffffff;verticalAlign=middle;labelPosition=right;align=left;spacingLeft=20;part=1;points=[];imageAspect=0;image=data:image/svg+xml,PHN2ZyB4bWxucz0iaHR0cDovL3d3dy53My5vcmcvMjAwMC9zdmciIHhtbG5zOnY9Imh0dHBzOi8vdmVjdGEuaW8vbmFubyIgd2lkdGg9IjE5LjkyMTQ0MjAzMTg2MDM1IiBoZWlnaHQ9IjE5Ljc3ODMyMDMxMjUiIHZpZXdCb3g9Ii0wLjAwMDQ0MTU1NzE3NDc4MTMzNzQgMC4yNSAxOS45MjE0NDIwMzE4NjAzNSAxOS43NzgzMjAzMTI1Ij4mI3hhOwk8c3R5bGUgdHlwZT0idGV4dC9jc3MiPiYjeGE7CS5zdDB7ZmlsbDojNDI4NWY0O30mI3hhOwkuc3Qxe2ZpbGw6I2FlY2JmYTt9JiN4YTsJLnN0MntmaWxsLXJ1bGU6ZXZlbm9kZH0mI3hhOwkuc3Qze2ZpbGw6IzY2OWRmNjt9JiN4YTsJPC9zdHlsZT4mI3hhOwk8cGF0aCBjbGFzcz0ic3QwIiBkPSJNNC40NjEgMTYuMjRhMyAzIDAgMSAxIDAtNiAzIDMgMCAxIDEgMCA2em0zLjYzLS40YTQuNDMgNC40MyAwIDAgMC01LjA0OS02LjcxNEE0LjQzIDQuNDMgMCAwIDAgLjAxMSAxMy4zMmE0LjkxIDQuOTEgMCAwIDAgMCAuNjcgMy40MyAzLjQzIDAgMCAwIC4wOS40NGwuMDYuMjFhNC41OSA0LjU5IDAgMCAwIC4zNC43OSA0LjI0IDQuMjQgMCAwIDAgLjc2IDFsLjE1LjE1LjMzLjI3YTQuMTYgNC4xNiAwIDAgMCAuNzMuNDQgNC40NCA0LjQ0IDAgMCAwIDQuNTQtLjI5bDIuOTMgMi45M2EuMzMuMzMgMCAwIDAgLjQ3IDBsLjY2LS42NWEuMzMuMzMgMCAwIDAgMC0uNDd6Ii8+JiN4YTsJPHBhdGggY2xhc3M9InN0MSIgZD0iTTkuODExIDE0LjU4YTUuNDEgNS40MSAwIDAgMCAuMi0xLjUxIDUuNTMgNS41MyAwIDAgMC01LjYxLTUuNDIgNS44MiA1LjgyIDAgMCAwLTEuOTIuMzVWMy44M2EuNjIuNjIgMCAwIDEgLjYyLS42MmgxNi4xOWEuNjMuNjMgMCAwIDEgLjYzLjYyVjE0YS42My42MyAwIDAgMS0uNjMuNjN6Ii8+JiN4YTsJPGcgY2xhc3M9InN0MiI+JiN4YTsJCTxwYXRoIGNsYXNzPSJzdDMiIGQ9Ik0xMy41OTEgMy4yMVYxLjczaC00LjQ0djEuNDhoLTEuNDlWLjg3YS42My42MyAwIDAgMSAuNjMtLjYyaDYuMTZhLjYyLjYyIDAgMCAxIC42Mi42MnYyLjM0eiIvPiYjeGE7CQk8cGF0aCBjbGFzcz0ic3QwIiBkPSJNMTUuMDcxIDMuMjFoLTEuNDhsMS40OC0uNDd6bS01LjkzIDBoLTEuNDlsMS40OS0uNTR6Ii8+JiN4YTsJPC9nPiYjeGE7PC9zdmc+;" parent="E6JsvqY4oB9ZtsTkPrVk-602" vertex="1">
          <mxGeometry width="30" height="30" relative="1" as="geometry">
            <mxPoint x="15" y="15" as="offset" />
          </mxGeometry>
        </mxCell>
        <mxCell id="E6JsvqY4oB9ZtsTkPrVk-605" value="" style="strokeColor=#dddddd;shadow=1;strokeWidth=1;rounded=1;absoluteArcSize=1;arcSize=2;" parent="14" vertex="1">
          <mxGeometry x="85" y="244" width="120" height="50" as="geometry" />
        </mxCell>
        <mxCell id="E6JsvqY4oB9ZtsTkPrVk-606" value="&lt;font color=&quot;#333333&quot;&gt;Integration&lt;/font&gt;" style="editableCssRules=.*;html=1;fontColor=#999999;shape=image;verticalLabelPosition=middle;labelBackgroundColor=#ffffff;verticalAlign=middle;labelPosition=right;align=left;spacingLeft=20;part=1;points=[];imageAspect=0;image=data:image/svg+xml,PHN2ZyB4bWxucz0iaHR0cDovL3d3dy53My5vcmcvMjAwMC9zdmciIHhtbG5zOnY9Imh0dHBzOi8vdmVjdGEuaW8vbmFubyIgd2lkdGg9IjE0LjY0MDAwMDM0MzMyMjc1NCIgaGVpZ2h0PSIyMCIgdmlld0JveD0iMCAwIDE0LjY0MDAwMDM0MzMyMjc1NCAyMCI+JiN4YTsJPHN0eWxlIHR5cGU9InRleHQvY3NzIj4mI3hhOwkuc3Qwe2ZpbGw6I2FlY2JmYTt9JiN4YTsJLnN0MXtmaWxsOiM0Mjg1ZjQ7fSYjeGE7CTwvc3R5bGU+JiN4YTsJPHBhdGggY2xhc3M9InN0MCIgZD0iTTAgMGgxNC42M3YzLjk0aC01LjN2NS4zM0g1LjM1VjMuOTZIMHoiLz4mI3hhOwk8cGF0aCBjbGFzcz0ic3QxIiBkPSJNMy45NSAxMC42N2g1LjM0VjIwSDUuMzV2LTUuMzVIMFY1LjM3aDMuOTV6TTE0LjY0IDIwSDEwLjdWNS4zNmgzLjk0eiIvPiYjeGE7CTxwYXRoIGNsYXNzPSJzdDAiIGQ9Ik0wIDE2LjA2aDMuOTJWMjBIMHoiLz4mI3hhOzwvc3ZnPg==;" parent="E6JsvqY4oB9ZtsTkPrVk-605" vertex="1">
          <mxGeometry width="20" height="30" relative="1" as="geometry">
            <mxPoint x="10" y="10" as="offset" />
          </mxGeometry>
        </mxCell>
        <mxCell id="E6JsvqY4oB9ZtsTkPrVk-616" value="" style="dashed=0;outlineConnect=0;html=1;align=center;labelPosition=center;verticalLabelPosition=bottom;verticalAlign=top;shape=mxgraph.webicons.java;gradientColor=#DFDEDE" parent="14" vertex="1">
          <mxGeometry x="18.5" y="8" width="42" height="42" as="geometry" />
        </mxCell>
        <mxCell id="2" value="Architecture:&amp;nbsp; Java" style="fillColor=#4DA1F5;strokeColor=none;shadow=1;gradientColor=none;fontSize=14;align=left;spacingLeft=50;fontColor=#ffffff;html=1;" parent="1" vertex="1">
          <mxGeometry x="209.5" y="40" width="750" height="40" as="geometry" />
        </mxCell>
        <mxCell id="582" style="edgeStyle=elbowEdgeStyle;rounded=0;elbow=vertical;html=1;labelBackgroundColor=none;startArrow=blockThin;startFill=1;startSize=4;endArrow=blockThin;endFill=1;endSize=4;jettySize=auto;orthogonalLoop=1;strokeColor=#4284F3;strokeWidth=2;fontSize=12;fontColor=#000000;align=center;dashed=0;" parent="1" source="566" target="568" edge="1">
          <mxGeometry relative="1" as="geometry" />
        </mxCell>
        <mxCell id="566" value="Symfony/Frontend&lt;br&gt;/Portal" style="strokeColor=#dddddd;fillColor=#ffffff;shadow=1;strokeWidth=1;rounded=1;absoluteArcSize=1;arcSize=2;labelPosition=center;verticalLabelPosition=middle;align=center;verticalAlign=bottom;spacingLeft=0;fontColor=#999999;fontSize=12;whiteSpace=wrap;spacingBottom=2;html=1;" parent="1" vertex="1">
          <mxGeometry x="180" y="290" width="119.5" height="100" as="geometry" />
        </mxCell>
        <mxCell id="567" value="" style="dashed=0;connectable=0;html=1;fillColor=#757575;strokeColor=none;shape=mxgraph.gcp2.mobile_devices;part=1;" parent="566" vertex="1">
          <mxGeometry x="0.5" width="50" height="36.5" relative="1" as="geometry">
            <mxPoint x="-25" y="16.75" as="offset" />
          </mxGeometry>
        </mxCell>
        <mxCell id="E6JsvqY4oB9ZtsTkPrVk-595" value="&lt;font style=&quot;font-size: 12px;&quot; color=&quot;#1a1a1a&quot;&gt;Apigee/ 3rd API&lt;/font&gt;" style="ellipse;shape=cloud;whiteSpace=wrap;html=1;fontSize=10;fillColor=#ffffff;strokeColor=#dddddd;fontColor=#9E9E9E;shadow=1;strokeWidth=1;rounded=1;arcSize=2;" parent="1" vertex="1">
          <mxGeometry x="179.5" y="495" width="120" height="110" as="geometry" />
        </mxCell>
        <mxCell id="E6JsvqY4oB9ZtsTkPrVk-596" value="" style="edgeStyle=orthogonalEdgeStyle;rounded=0;orthogonalLoop=1;jettySize=auto;html=1;exitX=0.369;exitY=1.033;exitDx=0;exitDy=0;exitPerimeter=0;" parent="1" source="568" edge="1">
          <mxGeometry relative="1" as="geometry">
            <mxPoint x="419" y="419" as="sourcePoint" />
            <mxPoint x="240" y="510" as="targetPoint" />
            <Array as="points">
              <mxPoint x="403" y="420" />
              <mxPoint x="241" y="420" />
            </Array>
          </mxGeometry>
        </mxCell>
        <mxCell id="E6JsvqY4oB9ZtsTkPrVk-611" value="S3/SFTP/Mbox/Yappli&lt;br&gt;&amp;nbsp;" style="verticalLabelPosition=bottom;sketch=0;aspect=fixed;html=1;verticalAlign=top;strokeColor=none;align=center;outlineConnect=0;shape=mxgraph.citrix.ftp_server;" parent="1" vertex="1">
          <mxGeometry x="203" y="635" width="71" height="97" as="geometry" />
        </mxCell>
        <mxCell id="E6JsvqY4oB9ZtsTkPrVk-617" style="edgeStyle=orthogonalEdgeStyle;rounded=0;orthogonalLoop=1;jettySize=auto;html=1;exitX=0;exitY=0.75;exitDx=0;exitDy=0;" parent="1" source="E6JsvqY4oB9ZtsTkPrVk-597" target="E6JsvqY4oB9ZtsTkPrVk-611" edge="1">
          <mxGeometry relative="1" as="geometry" />
        </mxCell>
      </root>
    </mxGraphModel>
  </diagram>
</mxfile>
